<?xml version="1.0" encoding="UTF-8"?>
<svg viewBox="0 0 1024 1024" version="1.1"
     xmlns="http://www.w3.org/2000/svg"
     xmlns:xlink="http://www.w3.org/1999/xlink"
     width="200" height="200">
<path d="M934.727446 317.458772l-353.673211 164.014749a71.154744 71.154744 0 0 0-41.22249 64.590653v436.555798a36.321302 36.321302 0 0 0 51.549993 32.907975l353.498169-164.189791a71.154744 71.154744 0 0 0 41.22249-64.590653v-436.380755a36.321302 36.321302 0 0 0-51.374951-32.907976z m-163.052015 414.850538c28.969521-14.353479 47.348975-50.149654 47.348975-50.149654l11.5528 6.301527c2.012988 1.050255 2.363073 4.551103 0.612648 7.701867a138.983682 138.983682 0 0 1-58.639211 58.201605c-43.760605 20.129878-78.769089-5.251273-78.769089-56.801266 0-51.549993 35.008484-109.576555 78.769089-129.706434 23.280642-10.85263 43.760605-8.752121 58.639211 3.850934 1.750424 1.487861 1.400339 5.251273-0.612648 8.226994l-9.627333 14.440999s-13.128182-17.504242-44.548296-3.150763c-28.006787 12.690576-59.251859 57.588956-60.477157 96.273331-1.575382 37.108993 24.505939 60.214593 55.575969 44.81086h0.175042zM589.718835 190.903102l-44.198211-20.742527-74.655593 35.008484 43.235478 20.2174a99.249053 99.249053 0 0 0 70.979702-1.662903c29.582169-14.003394 15.491254-27.744224 4.638624-32.820454z" fill="#0092BC"/>
<path d="M930.001301 254.618543a39.73463 39.73463 0 0 0 0-71.942435L565.387938 12.009748a127.605925 127.605925 0 0 0-108.088695 0l-364.613362 170.66636a39.73463 39.73463 0 0 0 0 71.942435l364.613362 170.666361a127.605925 127.605925 0 0 0 108.088695 0l364.613363-170.666361z m-435.855628-19.954836l-43.235478-20.217399-63.62792 29.757211-27.919266-13.04066 171.541572-80.344471a17.504242 17.504242 0 0 1 13.128182 0l64.590653 30.282339c16.979115 7.96443 49.712048 31.157551-1.225297 54.96332-40.259757 18.729539-92.772483 8.314515-113.252446-1.40034zM440.320129 481.386L86.646917 315.883391a36.321302 36.321302 0 0 0-51.637514 32.820454v436.118191a70.979702 70.979702 0 0 0 41.047448 64.415611l353.673211 165.502609a36.233781 36.233781 0 0 0 51.637514-32.820454v-436.03067a71.242265 71.242265 0 0 0-41.047447-64.503132z m-103.800156 310.437733l-23.193121-10.502545v-132.419592l-54.788277 57.151351-55.050842-108.526301v125.592937c0 3.500848-2.363073 5.338794-5.338794 3.938454l-18.291933-8.752121v-175.042421c0-3.675891 2.538115-5.513836 5.601358-4.113497l14.966127 7.001697 57.763999 115.352956 56.45118-59.339381a3.500848 3.500848 0 0 1 4.28854-0.525127l17.504242 8.226993 0.087521 181.956597z" fill="#0092BC"/>
</svg>